<mxfile host="65bd71144e">
    <diagram name="PÃ¡gina-1" id="LkZ_BvBzG33LXQS2Zz2u">
        <mxGraphModel dx="1475" dy="1655" grid="1" gridSize="10" guides="1" tooltips="1" connect="1" arrows="1" fold="1" page="1" pageScale="1" pageWidth="827" pageHeight="1169" math="0" shadow="0">
            <root>
                <mxCell id="0"/>
                <mxCell id="1" parent="0"/>
                <mxCell id="WBmNxw1tUeBrfchPVIIG-1" value="SchoolPackage&lt;div&gt;&lt;br&gt;&lt;/div&gt;&lt;div&gt;&lt;br&gt;&lt;/div&gt;&lt;div&gt;&lt;br&gt;&lt;/div&gt;&lt;div&gt;&lt;br&gt;&lt;/div&gt;&lt;div&gt;&lt;br&gt;&lt;/div&gt;&lt;div&gt;&lt;br&gt;&lt;/div&gt;&lt;div&gt;&lt;br&gt;&lt;/div&gt;&lt;div&gt;&lt;br&gt;&lt;/div&gt;&lt;div&gt;&lt;br&gt;&lt;/div&gt;&lt;div&gt;&lt;br&gt;&lt;/div&gt;&lt;div&gt;&lt;br&gt;&lt;/div&gt;&lt;div&gt;&lt;br&gt;&lt;/div&gt;&lt;div&gt;&lt;br&gt;&lt;/div&gt;&lt;div&gt;&lt;br&gt;&lt;/div&gt;&lt;div&gt;&lt;br&gt;&lt;/div&gt;&lt;div&gt;&lt;br&gt;&lt;/div&gt;&lt;div&gt;&lt;br&gt;&lt;/div&gt;&lt;div&gt;&lt;br&gt;&lt;/div&gt;&lt;div&gt;&lt;br&gt;&lt;/div&gt;&lt;div&gt;&lt;br&gt;&lt;/div&gt;&lt;div&gt;&lt;br&gt;&lt;/div&gt;&lt;div&gt;&lt;br&gt;&lt;/div&gt;&lt;div&gt;&lt;br&gt;&lt;/div&gt;&lt;div&gt;&lt;br&gt;&lt;/div&gt;&lt;div&gt;&lt;br&gt;&lt;/div&gt;&lt;div&gt;&lt;br&gt;&lt;/div&gt;&lt;div&gt;&lt;br&gt;&lt;/div&gt;&lt;div&gt;&lt;br&gt;&lt;/div&gt;&lt;div&gt;&lt;br&gt;&lt;/div&gt;&lt;div&gt;&lt;br&gt;&lt;/div&gt;&lt;div&gt;&lt;br&gt;&lt;/div&gt;&lt;div&gt;&lt;br&gt;&lt;/div&gt;&lt;div&gt;&lt;br&gt;&lt;/div&gt;&lt;div&gt;&lt;br&gt;&lt;/div&gt;&lt;div&gt;&lt;br&gt;&lt;/div&gt;&lt;div&gt;&lt;br&gt;&lt;/div&gt;&lt;div&gt;&lt;br&gt;&lt;/div&gt;&lt;div&gt;&lt;br&gt;&lt;/div&gt;&lt;div&gt;&lt;br&gt;&lt;/div&gt;&lt;div&gt;&lt;br&gt;&lt;/div&gt;&lt;div&gt;&lt;br&gt;&lt;/div&gt;&lt;div&gt;&lt;br&gt;&lt;/div&gt;&lt;div&gt;&lt;br&gt;&lt;/div&gt;&lt;div&gt;&lt;br&gt;&lt;/div&gt;&lt;div&gt;&lt;br&gt;&lt;/div&gt;&lt;div&gt;&lt;br&gt;&lt;/div&gt;&lt;div&gt;&lt;br&gt;&lt;/div&gt;&lt;div&gt;&lt;br&gt;&lt;/div&gt;&lt;div&gt;&lt;br&gt;&lt;/div&gt;&lt;div&gt;&lt;br&gt;&lt;/div&gt;&lt;div&gt;&lt;br&gt;&lt;/div&gt;&lt;div&gt;&lt;br&gt;&lt;/div&gt;&lt;div&gt;&lt;br&gt;&lt;/div&gt;&lt;div&gt;&lt;br&gt;&lt;/div&gt;&lt;div&gt;&lt;br&gt;&lt;/div&gt;&lt;div&gt;&lt;br&gt;&lt;/div&gt;&lt;div&gt;&lt;br&gt;&lt;/div&gt;&lt;div&gt;&lt;br&gt;&lt;/div&gt;&lt;div&gt;&lt;br&gt;&lt;/div&gt;&lt;div&gt;&lt;br&gt;&lt;/div&gt;&lt;div&gt;&lt;br&gt;&lt;/div&gt;" style="shape=folder;fontStyle=1;spacingTop=10;tabWidth=40;tabHeight=14;tabPosition=left;html=1;whiteSpace=wrap;" parent="1" vertex="1">
                    <mxGeometry x="-790" y="-1115" width="2300" height="960" as="geometry"/>
                </mxCell>
                <mxCell id="WBmNxw1tUeBrfchPVIIG-2" value="Classroom" style="swimlane;fontStyle=1;align=center;verticalAlign=top;childLayout=stackLayout;horizontal=1;startSize=26;horizontalStack=0;resizeParent=1;resizeParentMax=0;resizeLast=0;collapsible=1;marginBottom=0;whiteSpace=wrap;html=1;" parent="1" vertex="1">
                    <mxGeometry x="664" y="-565" width="250" height="190" as="geometry"/>
                </mxCell>
                <mxCell id="WBmNxw1tUeBrfchPVIIG-3" value="&lt;div&gt;- students:ArrayList&amp;lt;Student&amp;gt;&lt;/div&gt;&lt;div&gt;- id:int&lt;/div&gt;" style="text;strokeColor=none;fillColor=none;align=left;verticalAlign=top;spacingLeft=4;spacingRight=4;overflow=hidden;rotatable=0;points=[[0,0.5],[1,0.5]];portConstraint=eastwest;whiteSpace=wrap;html=1;" parent="WBmNxw1tUeBrfchPVIIG-2" vertex="1">
                    <mxGeometry y="26" width="250" height="54" as="geometry"/>
                </mxCell>
                <mxCell id="WBmNxw1tUeBrfchPVIIG-4" value="" style="line;strokeWidth=1;fillColor=none;align=left;verticalAlign=middle;spacingTop=-1;spacingLeft=3;spacingRight=3;rotatable=0;labelPosition=right;points=[];portConstraint=eastwest;strokeColor=inherit;" parent="WBmNxw1tUeBrfchPVIIG-2" vertex="1">
                    <mxGeometry y="80" width="250" height="8" as="geometry"/>
                </mxCell>
                <mxCell id="WBmNxw1tUeBrfchPVIIG-5" value="&lt;div&gt;+ Classroom(int id)&lt;/div&gt;&lt;div&gt;+ getId(): int&lt;/div&gt;&lt;div&gt;+ getStudents(): ArrayList&amp;lt;Students&amp;gt;&lt;/div&gt;&lt;div&gt;+ addStudent(Student student)&lt;/div&gt;&lt;div&gt;+ removeStudent(Student student)&lt;/div&gt;&lt;div&gt;+ toString(): String&lt;/div&gt;" style="text;strokeColor=none;fillColor=none;align=left;verticalAlign=top;spacingLeft=4;spacingRight=4;overflow=hidden;rotatable=0;points=[[0,0.5],[1,0.5]];portConstraint=eastwest;whiteSpace=wrap;html=1;" parent="WBmNxw1tUeBrfchPVIIG-2" vertex="1">
                    <mxGeometry y="88" width="250" height="102" as="geometry"/>
                </mxCell>
                <mxCell id="WBmNxw1tUeBrfchPVIIG-6" value="Subject" style="swimlane;fontStyle=1;align=center;verticalAlign=top;childLayout=stackLayout;horizontal=1;startSize=26;horizontalStack=0;resizeParent=1;resizeParentMax=0;resizeLast=0;collapsible=1;marginBottom=0;whiteSpace=wrap;html=1;" parent="1" vertex="1">
                    <mxGeometry x="664" y="-985" width="160" height="198" as="geometry"/>
                </mxCell>
                <mxCell id="WBmNxw1tUeBrfchPVIIG-7" value="&lt;div&gt;- name:String&lt;/div&gt;" style="text;strokeColor=none;fillColor=none;align=left;verticalAlign=top;spacingLeft=4;spacingRight=4;overflow=hidden;rotatable=0;points=[[0,0.5],[1,0.5]];portConstraint=eastwest;whiteSpace=wrap;html=1;" parent="WBmNxw1tUeBrfchPVIIG-6" vertex="1">
                    <mxGeometry y="26" width="160" height="44" as="geometry"/>
                </mxCell>
                <mxCell id="WBmNxw1tUeBrfchPVIIG-8" value="" style="line;strokeWidth=1;fillColor=none;align=left;verticalAlign=middle;spacingTop=-1;spacingLeft=3;spacingRight=3;rotatable=0;labelPosition=right;points=[];portConstraint=eastwest;strokeColor=inherit;" parent="WBmNxw1tUeBrfchPVIIG-6" vertex="1">
                    <mxGeometry y="70" width="160" height="8" as="geometry"/>
                </mxCell>
                <mxCell id="WBmNxw1tUeBrfchPVIIG-9" value="&lt;div&gt;+ Subject(String name, Teacher teacher)&lt;/div&gt;&lt;div&gt;+ getName(): String&lt;/div&gt;&lt;div&gt;+ getTeacher(): Teacher&lt;/div&gt;&lt;div&gt;+ setTeacher(Teacher teacher)&lt;/div&gt;&lt;div&gt;+ toString(): Strong&lt;/div&gt;" style="text;strokeColor=none;fillColor=none;align=left;verticalAlign=top;spacingLeft=4;spacingRight=4;overflow=hidden;rotatable=0;points=[[0,0.5],[1,0.5]];portConstraint=eastwest;whiteSpace=wrap;html=1;" parent="WBmNxw1tUeBrfchPVIIG-6" vertex="1">
                    <mxGeometry y="78" width="160" height="120" as="geometry"/>
                </mxCell>
                <mxCell id="WBmNxw1tUeBrfchPVIIG-10" value="Schedule" style="swimlane;fontStyle=1;align=center;verticalAlign=top;childLayout=stackLayout;horizontal=1;startSize=26;horizontalStack=0;resizeParent=1;resizeParentMax=0;resizeLast=0;collapsible=1;marginBottom=0;whiteSpace=wrap;html=1;" parent="1" vertex="1">
                    <mxGeometry x="1244" y="-765" width="280" height="320" as="geometry"/>
                </mxCell>
                <mxCell id="WBmNxw1tUeBrfchPVIIG-11" value="&lt;div&gt;- day:String&lt;/div&gt;&lt;div&gt;- time:String&lt;/div&gt;&lt;div&gt;- subject:Subject&lt;/div&gt;&lt;div&gt;- classroom:Classroom&lt;/div&gt;" style="text;strokeColor=none;fillColor=none;align=left;verticalAlign=top;spacingLeft=4;spacingRight=4;overflow=hidden;rotatable=0;points=[[0,0.5],[1,0.5]];portConstraint=eastwest;whiteSpace=wrap;html=1;" parent="WBmNxw1tUeBrfchPVIIG-10" vertex="1">
                    <mxGeometry y="26" width="280" height="64" as="geometry"/>
                </mxCell>
                <mxCell id="WBmNxw1tUeBrfchPVIIG-12" value="" style="line;strokeWidth=1;fillColor=none;align=left;verticalAlign=middle;spacingTop=-1;spacingLeft=3;spacingRight=3;rotatable=0;labelPosition=right;points=[];portConstraint=eastwest;strokeColor=inherit;" parent="WBmNxw1tUeBrfchPVIIG-10" vertex="1">
                    <mxGeometry y="90" width="280" height="8" as="geometry"/>
                </mxCell>
                <mxCell id="WBmNxw1tUeBrfchPVIIG-13" value="&lt;div&gt;+ Schedule(String day, String time, Subject subject, Classroom classroom)&lt;/div&gt;&lt;div&gt;+ getDay(): String&lt;/div&gt;&lt;div&gt;+ getTime(): String&lt;/div&gt;&lt;div&gt;+ getSubject(): Subject&lt;/div&gt;&lt;div&gt;+ getClassroom(): Classroom&lt;/div&gt;&lt;div&gt;+ setDay(String day)&lt;/div&gt;&lt;div&gt;+ setTime(String time)&lt;/div&gt;&lt;div&gt;+ setSubject(Subject subject)&lt;/div&gt;&lt;div&gt;+ setClassroom(Classroom classroom)&lt;/div&gt;&lt;div&gt;+ addScheduleToTeacher(Teacher teacher)&lt;/div&gt;&lt;div&gt;+ addScheduleToClassroom(Classroom classroom)&lt;/div&gt;&lt;div&gt;+ toString(): String&lt;/div&gt;" style="text;strokeColor=none;fillColor=none;align=left;verticalAlign=top;spacingLeft=4;spacingRight=4;overflow=hidden;rotatable=0;points=[[0,0.5],[1,0.5]];portConstraint=eastwest;whiteSpace=wrap;html=1;" parent="WBmNxw1tUeBrfchPVIIG-10" vertex="1">
                    <mxGeometry y="98" width="280" height="222" as="geometry"/>
                </mxCell>
                <mxCell id="WBmNxw1tUeBrfchPVIIG-14" value="Grade" style="swimlane;fontStyle=1;align=center;verticalAlign=top;childLayout=stackLayout;horizontal=1;startSize=26;horizontalStack=0;resizeParent=1;resizeParentMax=0;resizeLast=0;collapsible=1;marginBottom=0;whiteSpace=wrap;html=1;" parent="1" vertex="1">
                    <mxGeometry x="-679" y="-803" width="250" height="238" as="geometry"/>
                </mxCell>
                <mxCell id="WBmNxw1tUeBrfchPVIIG-15" value="&lt;div&gt;- subject:Subject&lt;/div&gt;&lt;div&gt;- grade:double&lt;/div&gt;&lt;div&gt;- student:Student&lt;/div&gt;" style="text;strokeColor=none;fillColor=none;align=left;verticalAlign=top;spacingLeft=4;spacingRight=4;overflow=hidden;rotatable=0;points=[[0,0.5],[1,0.5]];portConstraint=eastwest;whiteSpace=wrap;html=1;" parent="WBmNxw1tUeBrfchPVIIG-14" vertex="1">
                    <mxGeometry y="26" width="250" height="54" as="geometry"/>
                </mxCell>
                <mxCell id="WBmNxw1tUeBrfchPVIIG-16" value="" style="line;strokeWidth=1;fillColor=none;align=left;verticalAlign=middle;spacingTop=-1;spacingLeft=3;spacingRight=3;rotatable=0;labelPosition=right;points=[];portConstraint=eastwest;strokeColor=inherit;" parent="WBmNxw1tUeBrfchPVIIG-14" vertex="1">
                    <mxGeometry y="80" width="250" height="8" as="geometry"/>
                </mxCell>
                <mxCell id="WBmNxw1tUeBrfchPVIIG-17" value="&lt;div&gt;+ Grade(Subject subject, double grade, Student student)&lt;/div&gt;&lt;div&gt;+ getStudent(): Student&lt;/div&gt;&lt;div&gt;+ getGrade(): double&lt;/div&gt;&lt;div&gt;+ getStudent(): Student&lt;/div&gt;&lt;div&gt;+ setSubject(Subject subject)&lt;/div&gt;&lt;div&gt;+ setGrade(double grade)&lt;/div&gt;&lt;div&gt;+ toString(): String&lt;/div&gt;" style="text;strokeColor=none;fillColor=none;align=left;verticalAlign=top;spacingLeft=4;spacingRight=4;overflow=hidden;rotatable=0;points=[[0,0.5],[1,0.5]];portConstraint=eastwest;whiteSpace=wrap;html=1;" parent="WBmNxw1tUeBrfchPVIIG-14" vertex="1">
                    <mxGeometry y="88" width="250" height="150" as="geometry"/>
                </mxCell>
                <mxCell id="WBmNxw1tUeBrfchPVIIG-18" value="Teacher" style="swimlane;fontStyle=1;align=center;verticalAlign=top;childLayout=stackLayout;horizontal=1;startSize=26;horizontalStack=0;resizeParent=1;resizeParentMax=0;resizeLast=0;collapsible=1;marginBottom=0;whiteSpace=wrap;html=1;" parent="1" vertex="1">
                    <mxGeometry x="94" y="-835" width="260" height="310" as="geometry"/>
                </mxCell>
                <mxCell id="WBmNxw1tUeBrfchPVIIG-19" value="&lt;div&gt;- name:String&lt;/div&gt;&lt;div&gt;- subject:Subject&lt;/div&gt;&lt;div&gt;- classrooms:ArrayList&amp;lt;Classroom&amp;gt;&lt;/div&gt;&lt;div&gt;- id:int&lt;/div&gt;&lt;div&gt;- schedule:ArrayList&amp;lt;Schedule&amp;gt;&lt;/div&gt;" style="text;strokeColor=none;fillColor=none;align=left;verticalAlign=top;spacingLeft=4;spacingRight=4;overflow=hidden;rotatable=0;points=[[0,0.5],[1,0.5]];portConstraint=eastwest;whiteSpace=wrap;html=1;" parent="WBmNxw1tUeBrfchPVIIG-18" vertex="1">
                    <mxGeometry y="26" width="260" height="104" as="geometry"/>
                </mxCell>
                <mxCell id="WBmNxw1tUeBrfchPVIIG-20" value="" style="line;strokeWidth=1;fillColor=none;align=left;verticalAlign=middle;spacingTop=-1;spacingLeft=3;spacingRight=3;rotatable=0;labelPosition=right;points=[];portConstraint=eastwest;strokeColor=inherit;" parent="WBmNxw1tUeBrfchPVIIG-18" vertex="1">
                    <mxGeometry y="130" width="260" height="8" as="geometry"/>
                </mxCell>
                <mxCell id="WBmNxw1tUeBrfchPVIIG-21" value="&lt;div&gt;+ Teacher(String name, int id)&lt;/div&gt;&lt;div&gt;+ getName(): String&lt;/div&gt;&lt;div&gt;+ getId(): int&lt;/div&gt;&lt;div&gt;+ getClassrooms(): ArrayList&amp;lt;Classroom&amp;gt;&lt;/div&gt;&lt;div&gt;+ getSchedule(): ArrayList&amp;lt;Schedule&amp;gt;&lt;/div&gt;&lt;div&gt;+ getSubject(): Subject&lt;/div&gt;&lt;div&gt;+ setSubject(Subject subject)&lt;/div&gt;&lt;div&gt;+ addClassroom(Classroom classroom)&lt;/div&gt;&lt;div&gt;+ addSchedule(Schedule schedule)&lt;/div&gt;&lt;div&gt;+ toString(): String&lt;/div&gt;" style="text;strokeColor=none;fillColor=none;align=left;verticalAlign=top;spacingLeft=4;spacingRight=4;overflow=hidden;rotatable=0;points=[[0,0.5],[1,0.5]];portConstraint=eastwest;whiteSpace=wrap;html=1;" parent="WBmNxw1tUeBrfchPVIIG-18" vertex="1">
                    <mxGeometry y="138" width="260" height="172" as="geometry"/>
                </mxCell>
                <mxCell id="WBmNxw1tUeBrfchPVIIG-22" value="Student" style="swimlane;fontStyle=1;align=center;verticalAlign=top;childLayout=stackLayout;horizontal=1;startSize=26;horizontalStack=0;resizeParent=1;resizeParentMax=0;resizeLast=0;collapsible=1;marginBottom=0;whiteSpace=wrap;html=1;" parent="1" vertex="1">
                    <mxGeometry x="-256" y="-535" width="260" height="380" as="geometry"/>
                </mxCell>
                <mxCell id="WBmNxw1tUeBrfchPVIIG-23" value="&lt;div&gt;- name:String&lt;/div&gt;&lt;div&gt;- grades:ArrayList&amp;lt;Grade&amp;gt;&lt;/div&gt;&lt;div&gt;- meanGrade: double&lt;/div&gt;&lt;div&gt;- id:int&lt;/div&gt;&lt;div&gt;- classroom:Classroom&lt;/div&gt;&lt;div&gt;-schedule:ArrayList&amp;lt;Schedule&amp;gt;&lt;/div&gt;" style="text;strokeColor=none;fillColor=none;align=left;verticalAlign=top;spacingLeft=4;spacingRight=4;overflow=hidden;rotatable=0;points=[[0,0.5],[1,0.5]];portConstraint=eastwest;whiteSpace=wrap;html=1;" parent="WBmNxw1tUeBrfchPVIIG-22" vertex="1">
                    <mxGeometry y="26" width="260" height="114" as="geometry"/>
                </mxCell>
                <mxCell id="WBmNxw1tUeBrfchPVIIG-24" value="" style="line;strokeWidth=1;fillColor=none;align=left;verticalAlign=middle;spacingTop=-1;spacingLeft=3;spacingRight=3;rotatable=0;labelPosition=right;points=[];portConstraint=eastwest;strokeColor=inherit;" parent="WBmNxw1tUeBrfchPVIIG-22" vertex="1">
                    <mxGeometry y="140" width="260" height="8" as="geometry"/>
                </mxCell>
                <mxCell id="WBmNxw1tUeBrfchPVIIG-25" value="&lt;div&gt;+ Student(String name, int id, Classroom classroom)&lt;/div&gt;&lt;div&gt;+ getName():String&lt;/div&gt;&lt;div&gt;+ getGrades():ArrayList&amp;lt;Grade&amp;gt;&lt;/div&gt;&lt;div&gt;+ getMeanGrade(): double&lt;/div&gt;&lt;div&gt;+ getId():int&lt;/div&gt;&lt;div&gt;+ getClassroom():Classroom&lt;/div&gt;&lt;div&gt;+ getSchedule():ArrayList&amp;lt;Schedule&amp;gt;&lt;/div&gt;&lt;div&gt;+ setClassroom(Classroom classroom)&lt;/div&gt;&lt;div&gt;+ addGrade(Grade grade):&lt;/div&gt;&lt;div&gt;+ addSchedule(Schedule schedule):&lt;/div&gt;&lt;div&gt;+ addStudentToClassroom(Classroom classroom)&lt;/div&gt;&lt;div&gt;+ calcMeanGrade()&lt;/div&gt;&lt;div&gt;+ toString(): String&lt;/div&gt;" style="text;strokeColor=none;fillColor=none;align=left;verticalAlign=top;spacingLeft=4;spacingRight=4;overflow=hidden;rotatable=0;points=[[0,0.5],[1,0.5]];portConstraint=eastwest;whiteSpace=wrap;html=1;" parent="WBmNxw1tUeBrfchPVIIG-22" vertex="1">
                    <mxGeometry y="148" width="260" height="232" as="geometry"/>
                </mxCell>
                <mxCell id="2" style="edgeStyle=none;html=1;entryX=1;entryY=0.5;entryDx=0;entryDy=0;exitX=0;exitY=0.5;exitDx=0;exitDy=0;" parent="1" source="WBmNxw1tUeBrfchPVIIG-7" target="WBmNxw1tUeBrfchPVIIG-19" edge="1">
                    <mxGeometry relative="1" as="geometry"/>
                </mxCell>
                <mxCell id="3" value="SubjectHasTeachers" style="edgeLabel;html=1;align=center;verticalAlign=middle;resizable=0;points=[];" parent="2" vertex="1" connectable="0">
                    <mxGeometry x="0.1052" relative="1" as="geometry">
                        <mxPoint y="-20" as="offset"/>
                    </mxGeometry>
                </mxCell>
                <mxCell id="4" value="- teacher&lt;br&gt;1...*" style="edgeLabel;html=1;align=center;verticalAlign=middle;resizable=0;points=[];" parent="2" vertex="1" connectable="0">
                    <mxGeometry x="-0.7313" relative="1" as="geometry">
                        <mxPoint x="-238" y="34" as="offset"/>
                    </mxGeometry>
                </mxCell>
                <mxCell id="7" style="edgeStyle=none;html=1;entryX=0;entryY=0.5;entryDx=0;entryDy=0;exitX=1;exitY=0.5;exitDx=0;exitDy=0;" parent="1" source="WBmNxw1tUeBrfchPVIIG-3" target="WBmNxw1tUeBrfchPVIIG-11" edge="1">
                    <mxGeometry relative="1" as="geometry"/>
                </mxCell>
                <mxCell id="8" value="ClassroomHaveClassesInASchedule" style="edgeLabel;html=1;align=center;verticalAlign=middle;resizable=0;points=[];" parent="7" vertex="1" connectable="0">
                    <mxGeometry x="0.1028" y="3" relative="1" as="geometry">
                        <mxPoint x="24" y="41" as="offset"/>
                    </mxGeometry>
                </mxCell>
                <mxCell id="9" value="- schedule&lt;br&gt;1...*" style="edgeLabel;html=1;align=center;verticalAlign=middle;resizable=0;points=[];" parent="7" vertex="1" connectable="0">
                    <mxGeometry x="-0.8596" y="3" relative="1" as="geometry">
                        <mxPoint x="198" y="-157" as="offset"/>
                    </mxGeometry>
                </mxCell>
                <mxCell id="11" style="edgeStyle=none;html=1;entryX=1;entryY=0.5;entryDx=0;entryDy=0;exitX=0;exitY=0.5;exitDx=0;exitDy=0;" parent="1" source="WBmNxw1tUeBrfchPVIIG-11" target="WBmNxw1tUeBrfchPVIIG-7" edge="1">
                    <mxGeometry relative="1" as="geometry"/>
                </mxCell>
                <mxCell id="12" value="ScheduleHaveAnAssignedSubject" style="edgeLabel;html=1;align=center;verticalAlign=middle;resizable=0;points=[];" parent="11" vertex="1" connectable="0">
                    <mxGeometry x="0.1739" relative="1" as="geometry">
                        <mxPoint x="47" y="-16" as="offset"/>
                    </mxGeometry>
                </mxCell>
                <mxCell id="13" value="- subject&lt;br&gt;1" style="edgeLabel;html=1;align=center;verticalAlign=middle;resizable=0;points=[];" parent="11" vertex="1" connectable="0">
                    <mxGeometry x="-0.827" y="4" relative="1" as="geometry">
                        <mxPoint x="-343" y="-150" as="offset"/>
                    </mxGeometry>
                </mxCell>
                <mxCell id="16" style="edgeStyle=none;html=1;entryX=0;entryY=0.5;entryDx=0;entryDy=0;exitX=1;exitY=0.5;exitDx=0;exitDy=0;" parent="1" source="WBmNxw1tUeBrfchPVIIG-19" target="WBmNxw1tUeBrfchPVIIG-3" edge="1">
                    <mxGeometry relative="1" as="geometry"/>
                </mxCell>
                <mxCell id="17" value="TeacherTeachInClassrooms" style="edgeLabel;html=1;align=center;verticalAlign=middle;resizable=0;points=[];" parent="16" vertex="1" connectable="0">
                    <mxGeometry x="-0.1027" relative="1" as="geometry">
                        <mxPoint as="offset"/>
                    </mxGeometry>
                </mxCell>
                <mxCell id="18" value="- classroom&lt;br&gt;1...*" style="edgeLabel;html=1;align=center;verticalAlign=middle;resizable=0;points=[];" parent="16" vertex="1" connectable="0">
                    <mxGeometry x="-0.8853" y="-2" relative="1" as="geometry">
                        <mxPoint x="233" y="216" as="offset"/>
                    </mxGeometry>
                </mxCell>
                <mxCell id="20" style="edgeStyle=none;html=1;entryX=1;entryY=0.5;entryDx=0;entryDy=0;" parent="1" source="WBmNxw1tUeBrfchPVIIG-3" target="WBmNxw1tUeBrfchPVIIG-23" edge="1">
                    <mxGeometry relative="1" as="geometry"/>
                </mxCell>
                <mxCell id="21" value="ClassroomHasStudents" style="edgeLabel;html=1;align=center;verticalAlign=middle;resizable=0;points=[];" parent="20" vertex="1" connectable="0">
                    <mxGeometry x="-0.0549" y="2" relative="1" as="geometry">
                        <mxPoint y="-1" as="offset"/>
                    </mxGeometry>
                </mxCell>
                <mxCell id="23" value="- students&lt;br&gt;1...*" style="edgeLabel;html=1;align=center;verticalAlign=middle;resizable=0;points=[];" parent="20" vertex="1" connectable="0">
                    <mxGeometry x="0.9068" y="-2" relative="1" as="geometry">
                        <mxPoint x="19" y="26" as="offset"/>
                    </mxGeometry>
                </mxCell>
                <mxCell id="24" style="edgeStyle=none;html=1;entryX=1;entryY=0.5;entryDx=0;entryDy=0;exitX=0;exitY=0.5;exitDx=0;exitDy=0;" parent="1" source="WBmNxw1tUeBrfchPVIIG-19" target="WBmNxw1tUeBrfchPVIIG-15" edge="1">
                    <mxGeometry relative="1" as="geometry"/>
                </mxCell>
                <mxCell id="25" value="TeacherMakesGrade" style="edgeLabel;html=1;align=center;verticalAlign=middle;resizable=0;points=[];" parent="24" vertex="1" connectable="0">
                    <mxGeometry x="0.1558" y="-1" relative="1" as="geometry">
                        <mxPoint x="47" y="-8" as="offset"/>
                    </mxGeometry>
                </mxCell>
                <mxCell id="26" value="- grades&lt;br&gt;1...*" style="edgeLabel;html=1;align=center;verticalAlign=middle;resizable=0;points=[];" parent="24" vertex="1" connectable="0">
                    <mxGeometry x="0.8822" relative="1" as="geometry">
                        <mxPoint x="7" y="28" as="offset"/>
                    </mxGeometry>
                </mxCell>
                <mxCell id="27" style="edgeStyle=none;html=1;" parent="1" source="WBmNxw1tUeBrfchPVIIG-7" target="WBmNxw1tUeBrfchPVIIG-15" edge="1">
                    <mxGeometry relative="1" as="geometry"/>
                </mxCell>
                <mxCell id="28" value="SubjectHaveGrades" style="edgeLabel;html=1;align=center;verticalAlign=middle;resizable=0;points=[];" parent="27" vertex="1" connectable="0">
                    <mxGeometry x="-0.0269" relative="1" as="geometry">
                        <mxPoint as="offset"/>
                    </mxGeometry>
                </mxCell>
                <mxCell id="29" value="- grades&lt;br&gt;1...*" style="edgeLabel;html=1;align=center;verticalAlign=middle;resizable=0;points=[];" parent="27" vertex="1" connectable="0">
                    <mxGeometry x="-0.8856" y="-2" relative="1" as="geometry">
                        <mxPoint x="-11" y="-37" as="offset"/>
                    </mxGeometry>
                </mxCell>
                <mxCell id="30" style="edgeStyle=none;html=1;entryX=0;entryY=0.5;entryDx=0;entryDy=0;exitX=1;exitY=0.5;exitDx=0;exitDy=0;" parent="1" source="WBmNxw1tUeBrfchPVIIG-15" target="WBmNxw1tUeBrfchPVIIG-23" edge="1">
                    <mxGeometry relative="1" as="geometry">
                        <mxPoint x="-506" y="-932" as="sourcePoint"/>
                    </mxGeometry>
                </mxCell>
                <mxCell id="31" value="GradeBelongsStudent" style="edgeLabel;html=1;align=center;verticalAlign=middle;resizable=0;points=[];" parent="30" vertex="1" connectable="0">
                    <mxGeometry x="-0.1617" y="-5" relative="1" as="geometry">
                        <mxPoint x="80" y="14" as="offset"/>
                    </mxGeometry>
                </mxCell>
                <mxCell id="33" value="- grades&lt;br&gt;1...*" style="edgeLabel;html=1;align=center;verticalAlign=middle;resizable=0;points=[];" parent="30" vertex="1" connectable="0">
                    <mxGeometry x="0.8225" y="2" relative="1" as="geometry">
                        <mxPoint x="-30" y="20" as="offset"/>
                    </mxGeometry>
                </mxCell>
            </root>
        </mxGraphModel>
    </diagram>
</mxfile>